<svg width="258" height="56" viewBox="0 0 258 56" fill="none" xmlns="http://www.w3.org/2000/svg">
<g clip-path="url(#clip0_1_36)">
<path d="M27.7083 0.00701904C12.5193 0.00701904 0.180176 12.5545 0.180176 28C0.180176 43.4455 12.5193 55.993 27.7083 55.993C42.8973 55.993 55.2364 43.4455 55.2364 28C55.2364 12.5545 42.8973 0.00701904 27.7083 0.00701904ZM27.7083 53.1875C14.0352 53.1875 2.93905 41.8732 2.93905 28C2.93905 14.1268 14.0352 2.81248 27.7083 2.81248C41.3814 2.81248 52.4776 14.1268 52.4776 28C52.4776 41.8732 41.3814 53.1875 27.7083 53.1875Z" fill="#FAFAFA"/>
<path d="M37.5311 10.0574C37.4402 9.99571 37.3189 9.96488 37.1976 9.96488C36.8338 9.96488 36.561 10.2423 36.561 10.6123V19.3678C36.561 19.6761 36.3184 19.9227 36.0152 19.9227H19.3407C19.0375 19.9227 18.8253 19.6761 18.795 19.3678V10.6123C18.795 10.489 18.7647 10.3965 18.7041 10.2732C18.5222 9.96488 18.128 9.8724 17.8249 10.0574C11.6704 13.911 7.94141 20.601 7.94141 28C7.94141 35.3991 11.6704 42.089 17.8855 45.9427C17.9764 46.0043 18.0977 46.0352 18.219 46.0352C18.5828 46.0352 18.8556 45.7577 18.8556 45.3877V36.6322C18.8556 36.3239 19.0982 36.1081 19.4014 36.0773H36.0759C36.3791 36.0773 36.6216 36.3239 36.6216 36.6322V45.3877C36.6216 45.5111 36.6519 45.6035 36.7125 45.7269C36.8944 46.0352 37.2886 46.1276 37.5917 45.9427C43.8068 42.089 47.5358 35.3991 47.5358 28C47.5358 20.601 43.7462 13.911 37.5311 10.0574ZM15.642 38.9753L15.733 40.0234L15.066 39.1911C9.94235 32.6244 9.94235 23.3448 15.066 16.7782L15.642 16.0383L15.733 15.9458L15.642 17.0248C15.5511 17.888 15.5207 18.7821 15.5207 19.6761V36.2931C15.5207 37.1871 15.5814 38.0812 15.642 38.9753ZM36.561 32.1928C36.561 32.5011 36.3184 32.7477 36.0152 32.7477H19.3407C19.0375 32.7477 18.8253 32.5011 18.795 32.1928V23.8072C18.795 23.4989 19.0375 23.2523 19.3407 23.2523H36.0152C36.3184 23.2523 36.561 23.4989 36.561 23.8072V32.1928ZM40.3203 39.1911L39.6533 40.0234L39.7443 38.9753C39.8352 38.112 39.8655 37.218 39.8655 36.3239V19.6761C39.8655 18.7821 39.8352 17.888 39.7443 17.0248L39.714 16.5624L39.6836 16.0691V15.9458L40.3203 16.7782C42.8063 19.9227 44.1706 23.9306 44.1706 27.9692C44.1706 32.0078 42.8063 36.0465 40.3203 39.1911Z" fill="#FAFAFA"/>
<path d="M96.7711 27.5067C96.6196 27.4451 96.4376 27.3834 96.4376 27.1984C96.4376 27.0751 96.4983 26.9826 96.6196 26.921C96.8318 26.8285 102.077 24.9171 102.077 18.6279C102.077 11.6296 97.4381 7.46769 89.6163 7.46769H70.6679V48.594H91.3443C97.3775 48.594 103.865 44.247 103.865 37.2488C103.865 30.5588 98.8934 28.2158 96.7711 27.5067ZM80.2179 15.8841C80.2179 15.7299 80.3392 15.6066 80.4907 15.6066H88.0094C90.4955 15.6066 92.1932 17.3022 92.1932 19.8302C92.1932 21.8033 90.6774 23.9305 87.8275 23.9305H80.4907C80.3392 23.9305 80.2179 23.8072 80.2179 23.6531V15.8841ZM88.0094 40.4859H80.4907C80.3392 40.4859 80.2179 40.3625 80.2179 40.2084V32.0078C80.2179 31.8537 80.3392 31.7303 80.4907 31.7303H87.8275C91.4353 31.7303 93.4969 33.3026 93.4969 36.0773C93.4969 38.9444 91.5869 40.4859 88.0094 40.4859ZM167.865 23.838L166.41 23.5298C163.136 22.8207 159.952 21.9266 159.952 19.0595C159.952 16.1924 162.59 14.8975 165.197 14.8975C168.259 14.8975 171.291 16.2849 173.595 18.6896L179.598 12.647C177.021 9.74906 172.443 6.41949 165.046 6.41949C156.132 6.41949 150.13 11.568 150.13 19.2445C150.13 27.3526 156.405 30.4047 161.681 31.5454L163.105 31.8537C168.229 32.9635 170.654 33.7959 170.654 36.7555C170.654 39.4068 168.32 41.1641 164.864 41.1641C160.801 41.1641 157.194 39.3452 154.465 35.9231L148.311 42.0582C151.585 46.0043 155.92 49.5805 164.985 49.5805C172.716 49.5805 180.568 45.0178 180.568 36.2622C180.538 27.2909 174.535 25.2562 167.865 23.838ZM247.751 7.46769V22.5124C247.751 22.6665 247.63 22.7898 247.479 22.7898H235.048C234.897 22.7898 234.776 22.6665 234.776 22.5124V7.46769H224.589V48.594H234.776V32.4394C234.776 32.2853 234.897 32.162 235.048 32.162H247.479C247.63 32.162 247.751 32.2853 247.751 32.4394V48.594H257.999V7.46769H247.751ZM204.094 40.1776C199.517 40.1776 194.575 36.2931 194.575 27.7534C194.575 19.9536 199.213 15.8841 203.791 15.8841C207.126 15.8841 209.461 17.3022 211.31 20.4468L219.132 15.175C215.13 9.19413 210.37 6.48115 203.731 6.48115C190.725 6.48115 184.904 17.1789 184.904 27.7534C184.904 40.6092 192.604 49.5805 203.609 49.5805C211.795 49.5805 215.524 46.5284 219.435 40.8866L211.552 35.4915C209.794 38.3895 207.884 40.1776 204.094 40.1776ZM126.755 6.41949C115.629 6.41949 108.17 15.0825 108.17 28C108.17 40.9175 115.629 49.5805 126.755 49.5805C137.881 49.5805 145.339 40.9175 145.339 28C145.339 15.0825 137.881 6.41949 126.755 6.41949ZM126.755 40.1776C121.298 40.1776 117.781 35.399 117.781 28C117.781 20.6318 121.298 15.8841 126.755 15.8841C132.242 15.8841 135.79 20.6318 135.79 28C135.79 35.399 132.242 40.1776 126.755 40.1776Z" fill="#F80000"/>
</g>
<defs>
<clipPath id="clip0_1_36">
<rect width="257.818" height="56" fill="white" transform="translate(0.180176)"/>
</clipPath>
</defs>
</svg>
