<svg width="254" height="56" viewBox="0 0 254 56" fill="none" xmlns="http://www.w3.org/2000/svg">
<g clip-path="url(#clip0_1_41)">
<path d="M240.107 45.2703C240.107 41.4977 243.119 38.4369 246.827 38.4369C250.537 38.4369 253.545 41.4977 253.545 45.2703C253.545 49.043 250.537 52.102 246.827 52.102C243.119 52.102 240.107 49.043 240.107 45.2703Z" fill="#86BC24"/>
<path d="M25.7914 27.1732C25.7914 22.8449 24.969 19.6337 23.3241 17.5416C21.6769 15.4518 19.1824 14.4077 15.8279 14.4077H12.2601V40.8759H14.9901C18.7156 40.8759 21.4456 39.7524 23.1841 37.4985C24.9204 35.2486 25.7914 31.806 25.7914 27.1732ZM38.516 26.7221C38.516 34.6077 36.4317 40.6841 32.2626 44.949C28.0937 49.2159 22.2333 51.3493 14.6787 51.3493H0V4.0982H15.7037C22.9875 4.0982 28.611 6.0381 32.5737 9.91556C36.5348 13.7951 38.516 19.3947 38.516 26.7227M79.1764 51.3491H90.8567V3.8997H79.1764V51.3491ZM107.266 33.6501C107.266 36.6754 107.654 38.9829 108.431 40.5686C109.208 42.1566 110.511 42.9494 112.342 42.9494C114.155 42.9494 115.436 42.1566 116.183 40.5686C116.929 38.9829 117.301 36.6754 117.301 33.6501C117.301 30.6406 116.924 28.3706 116.167 26.8385C115.409 25.3017 114.116 24.5328 112.282 24.5328C110.489 24.5328 109.208 25.2982 108.43 26.8205C107.655 28.345 107.266 30.6208 107.266 33.6501ZM129.189 33.6501C129.189 39.414 127.704 43.9105 124.725 47.1334C121.748 50.3583 117.581 51.9719 112.224 51.9719C107.087 51.9719 102.997 50.3228 99.962 47.0245C96.9229 43.7266 95.4042 39.2696 95.4042 33.6504C95.4042 27.9041 96.892 23.4393 99.8707 20.256C102.849 17.0724 107.026 15.4809 112.404 15.4809C115.728 15.4809 118.668 16.2184 121.215 17.6915C123.764 19.1642 125.732 21.2744 127.115 24.0228C128.499 26.7672 129.189 29.9785 129.189 33.6501ZM133.828 51.3491H145.51V16.1037H133.828V51.3491ZM133.827 11.8403H145.51V3.89795H133.827V11.8403ZM169.178 42.3595C170.755 42.3595 172.633 41.952 174.825 41.1434V50.0116C173.25 50.7154 171.752 51.2195 170.329 51.5182C168.906 51.8209 167.236 51.971 165.324 51.971C161.402 51.971 158.575 50.9686 156.838 48.9673C155.11 46.9666 154.243 43.8939 154.243 39.7475V25.2179H150.151V16.1069H154.243V7.10599L166.014 5.02405V16.1066H173.468V25.2182H166.014V38.9366C166.014 41.2185 167.07 42.3595 169.178 42.3595ZM196.215 42.3595C197.792 42.3595 199.671 41.952 201.862 41.1434V50.0116C200.289 50.7154 198.79 51.2195 197.366 51.5182C195.941 51.8209 194.277 51.971 192.361 51.971C188.44 51.971 185.612 50.9686 183.879 48.9673C182.147 46.9666 181.28 43.8939 181.28 39.7475V25.2179H177.187V16.1069H181.28V6.96977L193.049 5.02405V16.1066H200.507V25.2182H193.05V38.9366C193.05 41.2185 194.105 42.3595 196.215 42.3595ZM216.602 29.3565C216.762 27.4267 217.304 26.0128 218.23 25.1093C219.159 24.2077 220.307 23.7568 221.679 23.7568C223.177 23.7568 224.367 24.263 225.249 25.2831C226.138 26.2974 226.601 27.6561 226.638 29.3565H216.602ZM233.076 19.636C230.299 16.8681 226.36 15.4817 221.263 15.4817C215.906 15.4817 211.784 17.0735 208.894 20.2568C206.007 23.4404 204.562 28.0077 204.562 33.9598C204.562 39.7233 206.124 44.1684 209.239 47.2885C212.356 50.4086 216.733 51.9708 222.369 51.9708C225.076 51.9708 227.406 51.783 229.358 51.4093C231.298 51.0397 233.177 50.3711 234.999 49.4062L233.204 41.4633C231.88 42.0134 230.62 42.4363 229.43 42.7148C227.711 43.1206 225.825 43.324 223.771 43.324C221.52 43.324 219.743 42.7646 218.44 41.6455C217.137 40.5243 216.443 38.9779 216.363 37.0087H237.243V31.5967C237.243 26.3906 235.855 22.4022 233.076 19.636ZM54.0191 29.3565C54.1785 27.4267 54.7212 26.0128 55.6465 25.1093C56.5739 24.2077 57.7231 23.7568 59.0981 23.7568C60.5913 23.7568 61.7814 24.263 62.6662 25.2831C63.5546 26.2974 64.0154 27.6561 64.0564 29.3565H54.0191ZM70.4944 19.636C67.7157 16.8681 63.7781 15.4817 58.6799 15.4817C53.321 15.4817 49.2008 17.0735 46.313 20.2568C43.4256 23.4404 41.979 28.0077 41.979 33.9598C41.979 39.7233 43.5384 44.1684 46.6574 47.2885C49.7723 50.4086 54.1493 51.9708 59.7865 51.9708C62.493 51.9708 64.8226 51.783 66.7746 51.4093C68.7152 51.0397 70.5937 50.3711 72.4175 49.4062L70.6209 41.4633C69.2965 42.0134 68.0366 42.4363 66.8485 42.7148C65.126 43.1206 63.2418 43.324 61.1881 43.324C58.9384 43.324 57.1595 42.7646 55.8566 41.6455C54.5517 40.5243 53.8596 38.9779 53.7801 37.0087H74.6595V31.5967C74.6595 26.3906 73.2713 22.4022 70.4944 19.636Z" fill="#FAFAFA"/>
</g>
<defs>
<clipPath id="clip0_1_41">
<rect width="253.545" height="56" fill="white"/>
</clipPath>
</defs>
</svg>
