<svg width="1096" height="69" viewBox="0 0 1096 69" fill="none" xmlns="http://www.w3.org/2000/svg">
<path d="M19.6781 67V13.456H0.174109V1.68H53.3501V13.456H33.7541V67H19.6781ZM86.6203 68.472C81.1003 68.472 76.3163 67.46 72.2683 65.436C68.2817 63.412 65.1843 60.5293 62.9763 56.788C60.7683 52.9853 59.6643 48.5387 59.6643 43.448V1.588H73.6483V43.448C73.6483 47.68 74.7523 50.9613 76.9603 53.292C79.2297 55.5613 82.4497 56.696 86.6203 56.696C90.791 56.696 93.9803 55.5613 96.1883 53.292C98.3963 50.9613 99.5003 47.68 99.5003 43.448V1.588H113.484V43.448C113.484 48.5387 112.38 52.9853 110.172 56.788C108.026 60.5293 104.928 63.412 100.88 65.436C96.8323 67.46 92.079 68.472 86.6203 68.472ZM127.079 67V1.68H145.755L162.407 49.244L178.967 1.68H197.643V67H183.659V24.68L168.295 66.816H156.335L141.063 24.68V67H127.079ZM232.197 67V1.68H257.589C265.685 1.68 271.879 3.12133 276.173 6.004C280.466 8.82533 282.613 13.3027 282.613 19.436C282.613 22.1347 282.061 24.496 280.957 26.52C279.853 28.4827 278.227 30.0467 276.081 31.212C273.995 32.3773 271.45 33.0827 268.445 33.328V33.144C273.903 33.512 278.074 35.1067 280.957 37.928C283.901 40.688 285.373 44.368 285.373 48.968C285.373 55.04 283.226 59.5787 278.933 62.584C274.701 65.528 268.629 67 260.717 67H232.197ZM246.181 55.592H260.073C263.446 55.592 266.145 54.9173 268.169 53.568C270.254 52.1573 271.297 50.072 271.297 47.312C271.297 44.552 270.254 42.4667 268.169 41.056C266.145 39.584 263.446 38.848 260.073 38.848H246.181V55.592ZM246.181 28.728H257.221C260.655 28.728 263.385 28.0533 265.409 26.704C267.494 25.3547 268.537 23.4227 268.537 20.908C268.537 18.2093 267.525 16.2467 265.501 15.02C263.538 13.732 260.778 13.088 257.221 13.088H246.181V28.728ZM296.884 67V1.68H310.868V63.228L303.14 55.224H340.952V67H296.884ZM375.905 68.472C369.281 68.472 363.577 67.092 358.793 64.332C354.07 61.572 350.421 57.6467 347.845 52.556C345.33 47.4653 344.073 41.424 344.073 34.432C344.073 27.44 345.33 21.3987 347.845 16.308C350.421 11.156 354.07 7.2 358.793 4.44C363.577 1.61867 369.281 0.207999 375.905 0.207999C382.529 0.207999 388.202 1.61867 392.925 4.44C397.709 7.2 401.358 11.156 403.873 16.308C406.449 21.3987 407.737 27.44 407.737 34.432C407.737 41.424 406.449 47.4653 403.873 52.556C401.358 57.6467 397.709 61.572 392.925 64.332C388.202 67.092 382.529 68.472 375.905 68.472ZM375.813 56.696C379.493 56.696 382.621 55.8373 385.197 54.12C387.834 52.3413 389.828 49.796 391.177 46.484C392.588 43.172 393.293 39.1547 393.293 34.432C393.293 29.7093 392.588 25.692 391.177 22.38C389.828 19.0067 387.834 16.4307 385.197 14.652C382.621 12.8733 379.493 11.984 375.813 11.984C372.194 11.984 369.097 12.8733 366.521 14.652C363.945 16.4307 361.952 19.0067 360.541 22.38C359.192 25.692 358.517 29.7093 358.517 34.432C358.517 39.1547 359.192 43.172 360.541 46.484C361.952 49.796 363.945 52.3413 366.521 54.12C369.158 55.8373 372.256 56.696 375.813 56.696ZM446.135 68.472C440.185 68.472 434.88 67.1227 430.219 64.424C425.619 61.7253 422 57.8307 419.363 52.74C416.787 47.6493 415.499 41.5467 415.499 34.432C415.499 27.5013 416.756 21.4907 419.271 16.4C421.785 11.248 425.373 7.26133 430.035 4.44C434.696 1.61867 440.155 0.207999 446.411 0.207999C454.936 0.207999 461.56 2.324 466.283 6.556C471.067 10.7267 474.133 16.7067 475.483 24.496L460.947 25.048C460.211 20.9387 458.616 17.7493 456.163 15.48C453.709 13.1493 450.459 11.984 446.411 11.984C442.915 11.984 439.94 12.904 437.487 14.744C435.033 16.584 433.163 19.1907 431.875 22.564C430.587 25.9373 429.943 29.8933 429.943 34.432C429.943 39.032 430.587 43.0187 431.875 46.392C433.224 49.704 435.125 52.2493 437.579 54.028C440.032 55.8067 442.945 56.696 446.319 56.696C450.735 56.696 454.139 55.4693 456.531 53.016C458.984 50.5013 460.517 47.036 461.131 42.62L475.759 43.172C474.9 48.508 473.213 53.0467 470.699 56.788C468.184 60.5293 464.872 63.412 460.763 65.436C456.715 67.46 451.839 68.472 446.135 68.472ZM485.466 67V1.68H499.45V30.2L523.186 1.68H539.47L515.458 30.476L540.942 67H525.026L506.258 39.86L499.45 47.772V67H485.466ZM572.904 68.472C566.955 68.472 561.65 67.1227 556.988 64.424C552.388 61.7253 548.77 57.8307 546.132 52.74C543.556 47.6493 542.268 41.5467 542.268 34.432C542.268 27.5013 543.526 21.4907 546.04 16.4C548.555 11.248 552.143 7.26133 556.804 4.44C561.466 1.61867 566.924 0.207999 573.18 0.207999C581.706 0.207999 588.33 2.324 593.052 6.556C597.836 10.7267 600.903 16.7067 602.252 24.496L587.716 25.048C586.98 20.9387 585.386 17.7493 582.932 15.48C580.479 13.1493 577.228 11.984 573.18 11.984C569.684 11.984 566.71 12.904 564.256 14.744C561.803 16.584 559.932 19.1907 558.644 22.564C557.356 25.9373 556.712 29.8933 556.712 34.432C556.712 39.032 557.356 43.0187 558.644 46.392C559.994 49.704 561.895 52.2493 564.348 54.028C566.802 55.8067 569.715 56.696 573.088 56.696C577.504 56.696 580.908 55.4693 583.3 53.016C585.754 50.5013 587.287 47.036 587.9 42.62L602.528 43.172C601.67 48.508 599.983 53.0467 597.468 56.788C594.954 60.5293 591.642 63.412 587.532 65.436C583.484 67.46 578.608 68.472 572.904 68.472ZM611.697 67V1.68H625.681V32.684L619.517 28.268H656.685L650.429 32.684V1.68H664.413V67H650.429V35.628L656.685 40.044H619.517L625.681 35.628V67H611.697ZM672.043 67L695.595 1.68H712.155L735.707 67H721.171L716.387 53.108H691.271L686.487 67H672.043ZM695.227 41.608H712.523L703.875 16.4L695.227 41.608ZM741.97 67V1.68H755.954V67H741.97ZM768.294 67V1.68H783.75L809.694 46.76V1.68H823.678V67H808.038L782.278 23.484V67H768.294ZM885.92 68.472C879.971 68.472 874.665 67.1227 870.004 64.424C865.404 61.7253 861.785 57.8307 859.148 52.74C856.572 47.6493 855.284 41.5467 855.284 34.432C855.284 27.5013 856.541 21.4907 859.056 16.4C861.571 11.248 865.159 7.26133 869.82 4.44C874.481 1.61867 879.94 0.207999 886.196 0.207999C894.721 0.207999 901.345 2.324 906.068 6.556C910.852 10.7267 913.919 16.7067 915.268 24.496L900.732 25.048C899.996 20.9387 898.401 17.7493 895.948 15.48C893.495 13.1493 890.244 11.984 886.196 11.984C882.7 11.984 879.725 12.904 877.272 14.744C874.819 16.584 872.948 19.1907 871.66 22.564C870.372 25.9373 869.728 29.8933 869.728 34.432C869.728 39.032 870.372 43.0187 871.66 46.392C873.009 49.704 874.911 52.2493 877.364 54.028C879.817 55.8067 882.731 56.696 886.104 56.696C890.52 56.696 893.924 55.4693 896.316 53.016C898.769 50.5013 900.303 47.036 900.916 42.62L915.544 43.172C914.685 48.508 912.999 53.0467 910.484 56.788C907.969 60.5293 904.657 63.412 900.548 65.436C896.5 67.46 891.624 68.472 885.92 68.472ZM925.251 67V1.68H939.235V63.228L931.507 55.224H969.319V67H925.251ZM1001.5 68.472C995.979 68.472 991.195 67.46 987.147 65.436C983.161 63.412 980.063 60.5293 977.855 56.788C975.647 52.9853 974.543 48.5387 974.543 43.448V1.588H988.527V43.448C988.527 47.68 989.631 50.9613 991.839 53.292C994.109 55.5613 997.329 56.696 1001.5 56.696C1005.67 56.696 1008.86 55.5613 1011.07 53.292C1013.28 50.9613 1014.38 47.68 1014.38 43.448V1.588H1028.36V43.448C1028.36 48.5387 1027.26 52.9853 1025.05 56.788C1022.9 60.5293 1019.81 63.412 1015.76 65.436C1011.71 67.46 1006.96 68.472 1001.5 68.472ZM1041.96 67V1.68H1067.35C1075.45 1.68 1081.64 3.12133 1085.93 6.004C1090.23 8.82533 1092.37 13.3027 1092.37 19.436C1092.37 22.1347 1091.82 24.496 1090.72 26.52C1089.61 28.4827 1087.99 30.0467 1085.84 31.212C1083.76 32.3773 1081.21 33.0827 1078.21 33.328V33.144C1083.67 33.512 1087.84 35.1067 1090.72 37.928C1093.66 40.688 1095.13 44.368 1095.13 48.968C1095.13 55.04 1092.99 59.5787 1088.69 62.584C1084.46 65.528 1078.39 67 1070.48 67H1041.96ZM1055.94 55.592H1069.83C1073.21 55.592 1075.91 54.9173 1077.93 53.568C1080.02 52.1573 1081.06 50.072 1081.06 47.312C1081.06 44.552 1080.02 42.4667 1077.93 41.056C1075.91 39.584 1073.21 38.848 1069.83 38.848H1055.94V55.592ZM1055.94 28.728H1066.98C1070.42 28.728 1073.15 28.0533 1075.17 26.704C1077.26 25.3547 1078.3 23.4227 1078.3 20.908C1078.3 18.2093 1077.29 16.2467 1075.26 15.02C1073.3 13.732 1070.54 13.088 1066.98 13.088H1055.94V28.728Z" fill="url(#paint0_linear_295_6)"/>
<defs>
<linearGradient id="paint0_linear_295_6" x1="-3" y1="-30" x2="1101.76" y2="69.4808" gradientUnits="userSpaceOnUse">
<stop stop-color="#FAFAFA"/>
<stop offset="1" stop-color="#A1A1AA"/>
</linearGradient>
</defs>
</svg>
