<svg width="557px" height="115px" viewBox="0 0 557 115" version="1.1" xmlns="http://www.w3.org/2000/svg"><defs><linearGradient x1="50%" y1="-12.9178377%" x2="50%" y2="125.18103%" id="linearGradient-1"><stop stop-color="#F7C300" offset="0%"></stop><stop stop-color="#FA006A" offset="100%"></stop></linearGradient><linearGradient x1="50%" y1="-422.405288%" x2="50%" y2="144.512352%" id="linearGradient-2"><stop stop-color="#F7C300" offset="0%"></stop><stop stop-color="#FA006A" offset="100%"></stop></linearGradient><linearGradient x1="50%" y1="-422.405288%" x2="50%" y2="144.512352%" id="linearGradient-3"><stop stop-color="#F7C300" offset="0%"></stop><stop stop-color="#FA006A" offset="100%"></stop></linearGradient><linearGradient x1="50%" y1="-422.405288%" x2="50%" y2="144.512352%" id="linearGradient-4"><stop stop-color="#F7C300" offset="0%"></stop><stop stop-color="#FA006A" offset="100%"></stop></linearGradient></defs><g id="SB_Logo_Dark" stroke="none" stroke-width="1" fill="none" fill-rule="evenodd"><path d="M151.96,79.84 C155.96,79.84 159.36,79.23 162.16,78.01 C164.96,76.79 167.06,75.16 168.46,73.12 C169.86,71.08 170.56,68.8 170.56,66.28 C170.56,63.36 169.79,61.05 168.25,59.35 C166.71,57.65 164.89,56.41 162.79,55.63 C160.69,54.85 158.04,54.12 154.84,53.44 C152,52.84 149.94,52.26 148.66,51.7 C147.38,51.14 146.74,50.3 146.74,49.18 C146.74,48.06 147.28,47.15 148.36,46.45 C149.44,45.75 151.16,45.4 153.52,45.4 C157.28,45.4 161.16,46.48 165.16,48.64 L165.16,48.64 L168.82,39.82 C166.78,38.62 164.42,37.71 161.74,37.09 C159.06,36.47 156.34,36.16 153.58,36.16 C149.54,36.16 146.13,36.76 143.35,37.96 C140.57,39.16 138.48,40.79 137.08,42.85 C135.68,44.91 134.98,47.22 134.98,49.78 C134.98,52.7 135.74,55.02 137.26,56.74 C138.78,58.46 140.6,59.71 142.72,60.49 C144.84,61.27 147.48,62 150.64,62.68 C153.52,63.32 155.61,63.93 156.91,64.51 C158.21,65.09 158.86,65.98 158.86,67.18 C158.86,69.46 156.58,70.6 152.02,70.6 C149.62,70.6 147.18,70.22 144.7,69.46 C142.22,68.7 140.04,67.7 138.16,66.46 L138.16,66.46 L134.26,75.22 C136.26,76.62 138.86,77.74 142.06,78.58 C145.26,79.42 148.56,79.84 151.96,79.84 Z M190.8,79.54 C194.32,79.54 197.48,78.82 200.28,77.38 C203.08,75.94 205.26,73.94 206.82,71.38 C208.38,68.82 209.16,65.92 209.16,62.68 C209.16,59.44 208.38,56.55 206.82,54.01 C205.26,51.47 203.08,49.49 200.28,48.07 C197.48,46.65 194.32,45.94 190.8,45.94 C187.28,45.94 184.13,46.65 181.35,48.07 C178.57,49.49 176.39,51.48 174.81,54.04 C173.23,56.6 172.44,59.48 172.44,62.68 C172.44,65.92 173.23,68.82 174.81,71.38 C176.39,73.94 178.58,75.94 181.38,77.38 C184.18,78.82 187.32,79.54 190.8,79.54 Z M190.8,70.48 C188.8,70.48 187.16,69.79 185.88,68.41 C184.6,67.03 183.96,65.12 183.96,62.68 C183.96,60.28 184.6,58.4 185.88,57.04 C187.16,55.68 188.8,55 190.8,55 C192.8,55 194.44,55.68 195.72,57.04 C197,58.4 197.64,60.28 197.64,62.68 C197.64,65.12 197,67.03 195.72,68.41 C194.44,69.79 192.8,70.48 190.8,70.48 Z M224.84,79 L224.84,34.48 L213.44,34.48 L213.44,79 L224.84,79 Z M241.48,79.54 C246.24,79.54 249.44,77.96 251.08,74.8 L251.08,74.8 L251.08,79 L261.7,79 L261.7,60.94 C261.7,55.86 260.28,52.09 257.44,49.63 C254.6,47.17 250.48,45.94 245.08,45.94 C242.48,45.94 239.89,46.27 237.31,46.93 C234.73,47.59 232.54,48.52 230.74,49.72 L230.74,49.72 L234.58,57.46 C235.7,56.58 237.06,55.89 238.66,55.39 C240.26,54.89 241.84,54.64 243.4,54.64 C247.8,54.64 250.1,56.36 250.3,59.8 L250.3,59.8 L243.82,59.8 C238.9,59.8 235.26,60.65 232.9,62.35 C230.54,64.05 229.36,66.44 229.36,69.52 C229.36,71.44 229.83,73.15 230.77,74.65 C231.71,76.15 233.1,77.34 234.94,78.22 C236.78,79.1 238.96,79.54 241.48,79.54 Z M244.66,72.34 C243.34,72.34 242.3,72.04 241.54,71.44 C240.78,70.84 240.4,70.04 240.4,69.04 C240.4,66.84 242.06,65.74 245.38,65.74 L245.38,65.74 L250.3,65.74 L250.3,68.56 C249.86,69.8 249.14,70.74 248.14,71.38 C247.14,72.02 245.98,72.34 244.66,72.34 Z M279.3,79 L279.3,63.28 C279.3,60.72 279.89,58.8 281.07,57.52 C282.25,56.24 283.82,55.6 285.78,55.6 C289.34,55.6 291.12,57.82 291.12,62.26 L291.12,62.26 L291.12,79 L302.52,79 L302.52,60.4 C302.52,55.56 301.29,51.94 298.83,49.54 C296.37,47.14 293.12,45.94 289.08,45.94 C287,45.94 285.08,46.29 283.32,46.99 C281.56,47.69 280.04,48.7 278.76,50.02 L278.76,50.02 L278.76,46.48 L267.9,46.48 L267.9,79 L279.3,79 Z M318.92,79.54 C323.68,79.54 326.88,77.96 328.52,74.8 L328.52,74.8 L328.52,79 L339.14,79 L339.14,60.94 C339.14,55.86 337.72,52.09 334.88,49.63 C332.04,47.17 327.92,45.94 322.52,45.94 C319.92,45.94 317.33,46.27 314.75,46.93 C312.17,47.59 309.98,48.52 308.18,49.72 L308.18,49.72 L312.02,57.46 C313.14,56.58 314.5,55.89 316.1,55.39 C317.7,54.89 319.28,54.64 320.84,54.64 C325.24,54.64 327.54,56.36 327.74,59.8 L327.74,59.8 L321.26,59.8 C316.34,59.8 312.7,60.65 310.34,62.35 C307.98,64.05 306.8,66.44 306.8,69.52 C306.8,71.44 307.27,73.15 308.21,74.65 C309.15,76.15 310.54,77.34 312.38,78.22 C314.22,79.1 316.4,79.54 318.92,79.54 Z M322.1,72.34 C320.78,72.34 319.74,72.04 318.98,71.44 C318.22,70.84 317.84,70.04 317.84,69.04 C317.84,66.84 319.5,65.74 322.82,65.74 L322.82,65.74 L327.74,65.74 L327.74,68.56 C327.3,69.8 326.58,70.74 325.58,71.38 C324.58,72.02 323.42,72.34 322.1,72.34 Z M385.02,79 C390.62,79 394.9,78 397.86,76 C400.82,74 402.3,71.16 402.3,67.48 C402.3,64.96 401.62,62.81 400.26,61.03 C398.9,59.25 397.02,57.94 394.62,57.1 C396.42,56.18 397.81,54.93 398.79,53.35 C399.77,51.77 400.26,49.98 400.26,47.98 C400.26,44.62 398.86,41.95 396.06,39.97 C393.26,37.99 389.18,37 383.82,37 L383.82,37 L362.34,37 L362.34,79 L385.02,79 Z M382.26,53.68 L374.1,53.68 L374.1,45.58 L382.26,45.58 C386.26,45.58 388.26,46.92 388.26,49.6 C388.26,52.32 386.26,53.68 382.26,53.68 L382.26,53.68 Z M384.06,70.42 L374.1,70.42 L374.1,61.9 L384.06,61.9 C388.22,61.9 390.3,63.32 390.3,66.16 C390.3,69 388.22,70.42 384.06,70.42 L384.06,70.42 Z M423.98,79.54 C430.06,79.54 434.68,77.78 437.84,74.26 L437.84,74.26 L431.84,68.02 C430.68,69.02 429.53,69.74 428.39,70.18 C427.25,70.62 425.9,70.84 424.34,70.84 C422.26,70.84 420.53,70.39 419.15,69.49 C417.77,68.59 416.84,67.3 416.36,65.62 L416.36,65.62 L440,65.62 C440.12,63.82 440.18,62.88 440.18,62.8 C440.18,59.32 439.41,56.31 437.87,53.77 C436.33,51.23 434.24,49.29 431.6,47.95 C428.96,46.61 426.02,45.94 422.78,45.94 C419.38,45.94 416.32,46.66 413.6,48.1 C410.88,49.54 408.75,51.53 407.21,54.07 C405.67,56.61 404.9,59.48 404.9,62.68 C404.9,65.92 405.69,68.82 407.27,71.38 C408.85,73.94 411.08,75.94 413.96,77.38 C416.84,78.82 420.18,79.54 423.98,79.54 Z M429.5,59.62 L416.18,59.62 C416.5,57.9 417.25,56.54 418.43,55.54 C419.61,54.54 421.08,54.04 422.84,54.04 C424.6,54.04 426.07,54.54 427.25,55.54 C428.43,56.54 429.18,57.9 429.5,59.62 L429.5,59.62 Z M453.82,79.54 C458.58,79.54 461.78,77.96 463.42,74.8 L463.42,74.8 L463.42,79 L474.04,79 L474.04,60.94 C474.04,55.86 472.62,52.09 469.78,49.63 C466.94,47.17 462.82,45.94 457.42,45.94 C454.82,45.94 452.23,46.27 449.65,46.93 C447.07,47.59 444.88,48.52 443.08,49.72 L443.08,49.72 L446.92,57.46 C448.04,56.58 449.4,55.89 451,55.39 C452.6,54.89 454.18,54.64 455.74,54.64 C460.14,54.64 462.44,56.36 462.64,59.8 L462.64,59.8 L456.16,59.8 C451.24,59.8 447.6,60.65 445.24,62.35 C442.88,64.05 441.7,66.44 441.7,69.52 C441.7,71.44 442.17,73.15 443.11,74.65 C444.05,76.15 445.44,77.34 447.28,78.22 C449.12,79.1 451.3,79.54 453.82,79.54 Z M457,72.34 C455.68,72.34 454.64,72.04 453.88,71.44 C453.12,70.84 452.74,70.04 452.74,69.04 C452.74,66.84 454.4,65.74 457.72,65.74 L457.72,65.74 L462.64,65.74 L462.64,68.56 C462.2,69.8 461.48,70.74 460.48,71.38 C459.48,72.02 458.32,72.34 457,72.34 Z M497.34,79.54 C501.02,79.54 504.2,78.75 506.88,77.17 C509.56,75.59 511.46,73.4 512.58,70.6 L512.58,70.6 L503.76,66.1 C502.28,69.02 500.12,70.48 497.28,70.48 C495.24,70.48 493.55,69.79 492.21,68.41 C490.87,67.03 490.2,65.12 490.2,62.68 C490.2,60.28 490.87,58.4 492.21,57.04 C493.55,55.68 495.24,55 497.28,55 C500.12,55 502.28,56.46 503.76,59.38 L503.76,59.38 L512.58,54.88 C511.46,52.08 509.56,49.89 506.88,48.31 C504.2,46.73 501.02,45.94 497.34,45.94 C493.74,45.94 490.52,46.65 487.68,48.07 C484.84,49.49 482.63,51.47 481.05,54.01 C479.47,56.55 478.68,59.44 478.68,62.68 C478.68,65.92 479.47,68.82 481.05,71.38 C482.63,73.94 484.84,75.94 487.68,77.38 C490.52,78.82 493.74,79.54 497.34,79.54 Z M527.18,79 L527.18,63.28 C527.18,60.72 527.77,58.8 528.95,57.52 C530.13,56.24 531.7,55.6 533.66,55.6 C537.22,55.6 539,57.82 539,62.26 L539,62.26 L539,79 L550.4,79 L550.4,60.4 C550.4,55.56 549.17,51.94 546.71,49.54 C544.25,47.14 541,45.94 536.96,45.94 C535.04,45.94 533.24,46.24 531.56,46.84 C529.88,47.44 528.42,48.32 527.18,49.48 L527.18,49.48 L527.18,34.48 L515.78,34.48 L515.78,79 L527.18,79 Z" id="SolanaBeach" fill="#ffffff" fill-rule="nonzero"></path><path d="M57,10 C86.2710917,10 110,33.7289083 110,63 C110,64.3364395 109.760971,66.7591788 109.282912,70.268218 C109.147909,71.2592206 108.301596,71.9981361 107.30144,71.998247 L91.5,72 L91.5,72 C90.6715729,72 90,72.6715729 90,73.5 C90,74.2796961 90.5948881,74.9204487 91.35554,74.9931334 L91.5,75 L107.040929,74.9981335 C107.688613,74.9980517 108.213727,75.5230401 108.213805,76.170724 C108.213815,76.2516851 108.205441,76.3324296 108.188817,76.4116656 C108.188817,76.4116656 108.188817,76.4116656 108.188817,76.4116656 C107.994511,77.3377959 107.177726,78.0009994 106.231432,78.0009994 L7.76857584,78.0009994 C7.76857584,78.0009994 7.76857584,78.0009994 7.76857584,78.0009994 C6.93935135,78.0009994 6.26713208,77.3287801 6.26713208,76.4995557 C6.26713208,75.6703312 6.93935135,74.9981119 7.76857584,74.9981119 C7.76861839,74.9981119 7.76866094,74.9981119 7.76870348,74.9981525 L29.5,75 L29.5,75 C30.3284271,75 31,74.3284271 31,73.5 C31,72.7203039 30.4051119,72.0795513 29.64446,72.0068666 L29.5,72 L6.47787371,71.9981749 C5.60359514,71.9981056 4.85941824,71.3617386 4.7236285,70.4980696 C4.6122806,69.789859 5.09613344,69.1254755 5.80434407,69.0141276 C5.87111848,69.0036291 5.93861092,68.9983622 6.0062056,68.9983752 L14.5,69 L14.5,69 C15.3284271,69 16,68.3284271 16,67.5 C16,66.7203039 15.4051119,66.0795513 14.64446,66.0068666 L14.5,66 L6.0285835,65.9991019 C4.95966125,65.9989933 4.0797722,65.1583784 4.03088371,64.0905747 C4.01029457,63.6408746 4,63.2773497 4,63 C4,33.7289083 27.7289083,10 57,10 Z M101.5,66 L90.5,66 C89.6715729,66 89,66.6715729 89,67.5 C89,68.2796961 89.5948881,68.9204487 90.35554,68.9931334 L90.5,69 L101.5,69 C102.328427,69 103,68.3284271 103,67.5 C103,66.7203039 102.405112,66.0795513 101.64446,66.0068666 L101.5,66 Z" id="Shape" fill="url(#linearGradient-1)"></path><path d="M68.5,99 C69.3284271,99 70,99.6715729 70,100.5 C70,101.328427 69.3284271,102 68.5,102 L29.5,102 C28.6715729,102 28,101.328427 28,100.5 C28,99.6715729 28.6715729,99 29.5,99 L68.5,99 Z M98.5,93 C99.3284271,93 100,93.6715729 100,94.5 C100,95.3284271 99.3284271,96 98.5,96 L79.5,96 C78.6715729,96 78,95.3284271 78,94.5 C78,93.6715729 78.6715729,93 79.5,93 L98.5,93 Z M65.5,93 C66.3284271,93 67,93.6715729 67,94.5 C67,95.3284271 66.3284271,96 65.5,96 L13.5,96 C12.6715729,96 12,95.3284271 12,94.5 C12,93.6715729 12.6715729,93 13.5,93 L65.5,93 Z M21.5,87 C22.3284271,87 23,87.6715729 23,88.5 C23,89.3284271 22.3284271,90 21.5,90 L2.5,90 C1.67157288,90 1,89.3284271 1,88.5 C1,87.6715729 1.67157288,87 2.5,87 L21.5,87 Z M71.5,87 C72.3284271,87 73,87.6715729 73,88.5 C73,89.3284271 72.3284271,90 71.5,90 L38.5,90 C37.6715729,90 37,89.3284271 37,88.5 C37,87.6715729 37.6715729,87 38.5,87 L71.5,87 Z M109.5,87 C110.328427,87 111,87.6715729 111,88.5 C111,89.3284271 110.328427,90 109.5,90 L90.5,90 C89.6715729,90 89,89.3284271 89,88.5 C89,87.6715729 89.6715729,87 90.5,87 L109.5,87 Z M32.5,87 C33.3284271,87 34,87.6715729 34,88.5 C34,89.3284271 33.3284271,90 32.5,90 L27.5,90 C26.6715729,90 26,89.3284271 26,88.5 C26,87.6715729 26.6715729,87 27.5,87 L32.5,87 Z M83.5,87 C84.3284271,87 85,87.6715729 85,88.5 C85,89.3284271 84.3284271,90 83.5,90 L78.5,90 C77.6715729,90 77,89.3284271 77,88.5 C77,87.6715729 77.6715729,87 78.5,87 L83.5,87 Z M104.5,81 C105.328427,81 106,81.6715729 106,82.5 C106,83.3284271 105.328427,84 104.5,84 L7.5,84 C6.67157288,84 6,83.3284271 6,82.5 C6,81.6715729 6.67157288,81 7.5,81 L104.5,81 Z" id="Combined-Shape" fill="url(#linearGradient-2)"></path><rect id="Rectangle-Copy-10" fill="url(#linearGradient-3)" x="45" y="105" width="29" height="3" rx="1.5"></rect><rect id="Rectangle-Copy-11" fill="url(#linearGradient-4)" x="51" y="111" width="13" height="3" rx="1.5"></rect></g></svg>