<svg width="269" height="56" viewBox="0 0 269 56" fill="none" xmlns="http://www.w3.org/2000/svg">
<g clip-path="url(#clip0_1_44)">
<path d="M58.5936 29.1272C57.1112 29.1272 55.7341 28.9718 54.472 28.6657C53.2095 28.3549 52.1081 27.9162 51.1723 27.3359C50.2361 26.7601 49.5029 26.0427 48.9822 25.1882C48.4611 24.3291 48.1985 23.342 48.1985 22.2179C48.1985 22.1037 48.1985 21.994 48.1985 21.8798C48.1985 21.7655 48.2112 21.6696 48.2367 21.5827H53.9044C53.9044 21.6376 53.9044 21.7015 53.9044 21.7746C53.9044 21.8433 53.9044 21.9072 53.9044 21.9665C53.9295 22.6429 54.1625 23.1913 54.6076 23.6116C55.0478 24.0321 55.6367 24.3336 56.3653 24.5164C57.0936 24.6992 57.865 24.7906 58.6693 24.7906C59.4238 24.7906 60.1607 24.7358 60.8766 24.6215C61.5925 24.5073 62.1938 24.2834 62.6729 23.9452C63.1558 23.6071 63.3971 23.1593 63.3971 22.5972C63.3971 21.8934 63.109 21.3771 62.5369 21.039C61.9652 20.7009 61.1774 20.4359 60.1734 20.2394C59.1698 20.0429 58.0429 19.8189 56.7935 19.5629C55.7509 19.3664 54.7556 19.1152 53.8025 18.8045C52.8536 18.4936 51.9979 18.0961 51.2442 17.6026C50.4901 17.109 49.8884 16.4785 49.4479 15.7062C49.0032 14.934 48.7829 13.9698 48.7829 12.8182C48.7829 11.6119 49.0287 10.5699 49.5243 9.69716C50.0199 8.82436 50.7231 8.11141 51.6338 7.5495C52.5445 6.98744 53.6204 6.57156 54.8575 6.30657C56.0941 6.04154 57.4289 5.90436 58.8603 5.90436C60.1903 5.90436 61.44 6.03693 62.6137 6.30657C63.7867 6.57156 64.8034 6.96904 65.6587 7.48542C66.5184 8.00642 67.201 8.65986 67.709 9.44592C68.217 10.2317 68.4717 11.1183 68.4717 12.1007C68.4717 12.2698 68.4717 12.4252 68.4717 12.5622C68.4717 12.7041 68.459 12.8137 68.4332 12.9006H62.7699V12.6035C62.7699 12.0689 62.5924 11.6348 62.2406 11.2966C61.8888 10.9583 61.4059 10.6979 60.796 10.5152C60.182 10.3323 59.4875 10.241 58.7034 10.241C58.3138 10.241 57.8695 10.2684 57.3735 10.3233C56.8778 10.378 56.4035 10.4786 55.9457 10.6202C55.4883 10.762 55.1242 10.9583 54.853 11.2097C54.5821 11.4611 54.4424 11.7854 54.4424 12.1784C54.4424 12.6857 54.6878 13.0833 55.1834 13.3803C55.679 13.6774 56.3357 13.9058 57.1573 14.0748C57.9792 14.2439 58.8686 14.4268 59.8347 14.6233C60.9275 14.8745 62.0244 15.1351 63.1172 15.4045C64.2104 15.6697 65.2144 16.0307 66.1251 16.4785C67.0358 16.9263 67.7513 17.5751 68.2724 18.4161C68.7932 19.2569 69.0517 20.3856 69.0517 21.7884C69.0517 23.1364 68.7977 24.2834 68.2889 25.2247C67.7809 26.166 67.0609 26.9247 66.1206 27.5004C65.1848 28.0762 64.0748 28.492 62.7995 28.7433C61.5378 28.9993 60.1311 29.1272 58.5936 29.1272Z" fill="#FAFAFA"/>
<path d="M80.7456 29.1265C78.297 29.1265 76.4033 28.4501 75.0603 27.1021C73.718 25.754 73.0485 23.6337 73.0485 20.7366V6.44738H78.7545V19.7221C78.7545 20.5401 78.8432 21.2209 79.0298 21.7648C79.2119 22.3131 79.4876 22.7564 79.8517 23.0945C80.2162 23.4327 80.6523 23.6795 81.1603 23.8302C81.669 23.9811 82.249 24.0633 82.8974 24.0633C83.8333 24.0633 84.6889 23.8394 85.4558 23.387C86.2222 22.9392 86.8408 22.3131 87.3109 21.5134C87.7811 20.7137 88.0141 19.8044 88.0141 18.7945V6.44281H93.7582V28.6146H89.0687L88.6408 25.2423H88.3659C87.7387 26.1151 87.0356 26.8371 86.2563 27.4128C85.4722 27.9886 84.6087 28.4182 83.6594 28.6969C82.7064 28.9848 81.7365 29.1265 80.7456 29.1265Z" fill="#FAFAFA"/>
<path d="M98.912 36.3326V6.44731H103.563L104.071 9.65055H104.347C105.156 8.30262 106.176 7.3475 107.414 6.7854C108.65 6.22331 109.997 5.94464 111.459 5.94464C113.361 5.94464 115.008 6.35135 116.402 7.16921C117.795 7.98274 118.871 9.24853 119.626 10.962C120.38 12.6757 120.756 14.8692 120.756 17.5378C120.756 20.1515 120.371 22.3176 119.604 24.0312C118.838 25.7448 117.774 27.0243 116.419 27.8651C115.064 28.7059 113.475 29.1309 111.654 29.1309C110.743 29.1309 109.862 29.0166 109.015 28.7927C108.167 28.5688 107.392 28.2215 106.689 27.76C105.986 27.2985 105.384 26.7272 104.893 26.0509H104.66V36.3372H98.912V36.3326ZM109.815 24.1088C110.989 24.1088 111.95 23.8758 112.708 23.4143C113.462 22.9528 114.022 22.249 114.39 21.3077C114.754 20.3663 114.936 19.2513 114.936 17.9582V17.1173C114.936 15.7694 114.754 14.6314 114.39 13.704C114.026 12.7763 113.467 12.0816 112.708 11.6156C111.95 11.1539 110.976 10.9209 109.777 10.9209C108.659 10.9209 107.71 11.1723 106.943 11.6795C106.176 12.1867 105.588 12.9087 105.185 13.85C104.779 14.7915 104.58 15.911 104.58 17.1997V17.7892C104.58 18.7441 104.698 19.6215 104.931 20.4211C105.164 21.2208 105.499 21.8971 105.927 22.4455C106.355 22.9939 106.888 23.4097 107.528 23.6884C108.167 23.9718 108.93 24.1088 109.815 24.1088Z" fill="#FAFAFA"/>
<path d="M135.718 29.1278C133.244 29.1278 131.139 28.7119 129.407 27.8848C127.674 27.0577 126.352 25.7828 125.442 24.0692C124.531 22.3555 124.073 20.1758 124.073 17.5346C124.073 14.8934 124.527 12.7136 125.442 11.0001C126.352 9.28638 127.661 8.01613 129.369 7.18444C131.075 6.35731 133.139 5.94147 135.561 5.94147C137.933 5.94147 139.945 6.34813 141.597 7.16623C143.249 7.97949 144.503 9.22246 145.346 10.8949C146.193 12.5675 146.617 14.6649 146.617 17.1964V18.9238H129.974C130.025 20.217 130.275 21.2909 130.715 22.1499C131.156 23.009 131.804 23.635 132.651 24.028C133.499 24.421 134.545 24.6175 135.798 24.6175C136.421 24.6175 137.022 24.5398 137.595 24.3845C138.166 24.2291 138.687 23.9914 139.157 23.667C139.627 23.3426 140.017 22.945 140.331 22.4652C140.644 21.99 140.814 21.4415 140.839 20.8202H146.584C146.584 22.1134 146.316 23.2786 145.783 24.3205C145.249 25.3623 144.512 26.2306 143.576 26.9343C142.639 27.638 141.504 28.1772 140.174 28.5565C138.844 28.9358 137.362 29.1278 135.718 29.1278ZM130.055 15.0899H140.602C140.602 14.3039 140.479 13.6138 140.229 13.0244C139.979 12.4349 139.636 11.9414 139.196 11.5483C138.751 11.1555 138.23 10.8675 137.633 10.6847C137.035 10.5019 136.37 10.4105 135.641 10.4105C134.524 10.4105 133.566 10.5842 132.77 10.9362C131.974 11.2879 131.355 11.8134 130.914 12.5172C130.47 13.2254 130.182 14.0799 130.055 15.0899Z" fill="#FAFAFA"/>
<path d="M150.84 28.6196V6.44785H155.528L155.999 10.0715H156.274C156.532 9.31291 156.914 8.60922 157.405 7.96499C157.901 7.32061 158.507 6.81337 159.223 6.44785C159.938 6.08225 160.751 5.89935 161.666 5.89935C162.136 5.89935 162.564 5.94057 162.955 6.02735C163.344 6.10968 163.683 6.21021 163.971 6.32442V11.7211H161.705C160.819 11.7211 160.057 11.8674 159.417 12.1645C158.778 12.4613 158.244 12.8818 157.816 13.4302C157.388 13.9786 157.074 14.6183 156.88 15.3495C156.685 16.0806 156.588 16.9077 156.588 17.8352V28.6241H150.84V28.6196Z" fill="#FAFAFA"/>
<path d="M174.476 29.1267C173.044 29.1267 171.87 28.8891 170.96 28.4093C170.049 27.9341 169.376 27.2212 168.948 26.2798C168.52 25.3385 168.304 24.1641 168.304 22.7612V11.0859H165.139V6.44777H168.537L169.63 1.9588e-07L174.044 0V6.44777H178.652V11.0859H174.044V21.8747C174.044 22.7155 174.204 23.3553 174.531 23.7939C174.857 24.2281 175.475 24.4474 176.386 24.4474H178.652V28.4504C178.313 28.5646 177.898 28.6698 177.402 28.7657C176.907 28.8617 176.398 28.9485 175.878 29.0171C175.361 29.0901 174.895 29.1267 174.476 29.1267Z" fill="#FAFAFA"/>
<path d="M193.232 29.1278C190.758 29.1278 188.652 28.7119 186.92 27.8848C185.188 27.0577 183.866 25.7828 182.955 24.0692C182.044 22.3555 181.587 20.1758 181.587 17.5346C181.587 14.8934 182.044 12.7136 182.955 11.0001C183.866 9.28638 185.174 8.01613 186.882 7.18444C188.589 6.35731 190.652 5.94147 193.075 5.94147C195.443 5.94147 197.459 6.34813 199.11 7.16623C200.763 7.97949 202.017 9.22246 202.864 10.8949C203.712 12.5675 204.135 14.6649 204.135 17.1964V18.9238H187.492C187.543 20.217 187.793 21.2909 188.233 22.1499C188.674 23.009 189.322 23.635 190.169 24.028C191.016 24.421 192.062 24.6175 193.316 24.6175C193.943 24.6175 194.54 24.5398 195.113 24.3845C195.684 24.2291 196.205 23.9914 196.675 23.667C197.146 23.3426 197.535 22.945 197.849 22.4652C198.162 21.99 198.331 21.4415 198.357 20.8202H204.1C204.1 22.1134 203.834 23.2786 203.301 24.3205C202.766 25.3623 202.03 26.2306 201.093 26.9343C200.156 27.638 199.021 28.1772 197.696 28.5565C196.358 28.9358 194.871 29.1278 193.232 29.1278ZM187.564 15.0899H198.115C198.115 14.3039 197.993 13.6138 197.743 13.0244C197.497 12.4349 197.15 11.9414 196.71 11.5483C196.264 11.1555 195.743 10.8675 195.146 10.6847C194.545 10.5019 193.884 10.4105 193.155 10.4105C192.037 10.4105 191.08 10.5842 190.284 10.9362C189.487 11.2879 188.869 11.8134 188.428 12.5172C187.983 13.2254 187.695 14.0799 187.564 15.0899Z" fill="#FAFAFA"/>
<path d="M214.84 29.1287C213.929 29.1287 213.018 29.0281 212.102 28.8316C211.192 28.6351 210.378 28.3107 209.663 27.8628C208.948 27.415 208.366 26.7753 207.927 25.9436C207.482 25.1165 207.262 24.0564 207.262 22.7632C207.262 21.1044 207.625 19.7655 208.355 18.7373C209.083 17.7137 210.138 16.9414 211.519 16.4206C212.899 15.8996 214.534 15.5569 216.424 15.3878C218.312 15.2187 220.389 15.1365 222.655 15.1365V13.8296C222.655 13.0709 222.506 12.445 222.206 11.956C221.905 11.4625 221.439 11.0786 220.8 10.7954C220.16 10.5165 219.309 10.3749 218.242 10.3749C217.305 10.3749 216.504 10.48 215.84 10.6902C215.175 10.9005 214.665 11.1746 214.314 11.5127C213.962 11.8509 213.784 12.2439 213.784 12.6917V13.199H208.159C208.133 13.0299 208.112 12.8882 208.1 12.7785C208.087 12.6643 208.079 12.5272 208.079 12.3582C208.079 11.0649 208.481 9.93622 209.29 8.9675C210.099 7.99874 211.277 7.25394 212.827 6.73295C214.378 6.21207 216.232 5.95154 218.393 5.95154C220.554 5.95154 222.37 6.20289 223.844 6.71009C225.316 7.21733 226.442 8.00335 227.225 9.07264C228.005 10.1419 228.399 11.5037 228.399 13.1625V22.9003C228.399 23.4075 228.521 23.7913 228.771 24.0609C229.016 24.3259 229.327 24.4631 229.691 24.4631H231.33V28.4249C231.042 28.5666 230.589 28.7128 229.962 28.8682C229.334 29.0235 228.605 29.1013 227.771 29.1013C226.806 29.1013 226.014 28.9688 225.386 28.6991C224.759 28.4341 224.273 28.0685 223.921 27.6024C223.57 27.1363 223.316 26.5971 223.159 25.9802H222.846C222.3 26.5971 221.625 27.1546 220.832 27.6435C220.036 28.1371 219.139 28.5072 218.135 28.7585C217.135 29.0007 216.034 29.1287 214.84 29.1287ZM216.555 24.5773C217.31 24.5773 218.045 24.4722 218.762 24.262C219.477 24.0518 220.122 23.7548 220.698 23.3755C221.269 22.9962 221.739 22.5164 222.104 21.9406C222.468 21.3648 222.65 20.7388 222.65 20.0672V18.8471C220.618 18.8471 218.884 18.952 217.453 19.1624C216.022 19.3725 214.92 19.7245 214.153 20.2178C213.386 20.7114 213.001 21.3923 213.001 22.2605C213.001 22.8225 213.158 23.2704 213.471 23.6086C213.784 23.9467 214.212 24.1934 214.758 24.3442C215.305 24.4997 215.908 24.5773 216.555 24.5773Z" fill="#FAFAFA"/>
<path d="M234.021 28.62V6.44818H238.71L239.18 9.77942H239.456C240.002 8.90662 240.659 8.18464 241.429 7.60894C242.196 7.0331 243.026 6.61279 243.911 6.34315C244.797 6.07816 245.708 5.94094 246.649 5.94094C248.237 5.94094 249.579 6.24258 250.672 6.84578C251.765 7.44894 252.599 8.42689 253.171 9.77481H253.447C254.019 8.90205 254.692 8.18007 255.459 7.60433C256.225 7.02849 257.073 6.60818 258.001 6.33854C258.923 6.07355 259.869 5.93652 260.834 5.93652C262.372 5.93652 263.68 6.21976 264.762 6.77725C265.841 7.33934 266.68 8.23957 267.282 9.47332C267.878 10.7117 268.179 12.2836 268.179 14.1937V28.6109H262.398V15.2492C262.398 14.4634 262.313 13.7869 262.143 13.225C261.974 12.663 261.732 12.215 261.419 11.8769C261.106 11.5388 260.708 11.3012 260.229 11.1596C259.745 11.0178 259.234 10.9492 258.687 10.9492C257.828 10.9492 257.039 11.1686 256.323 11.6027C255.608 12.0368 255.036 12.6584 254.604 13.458C254.176 14.2577 253.959 15.1671 253.959 16.1769V28.6109L248.254 28.6108V15.2493C248.254 14.4634 248.16 13.7869 247.978 13.2249C247.796 12.663 247.542 12.215 247.216 11.8769C246.89 11.5388 246.5 11.3012 246.042 11.1596C245.586 11.0178 245.06 10.9492 244.458 10.9492C243.598 10.9492 242.81 11.1686 242.095 11.6027C241.378 12.0368 240.811 12.6584 240.395 13.458C239.981 14.2577 239.769 15.1671 239.769 16.1769V28.6108H234.021V28.62Z" fill="#FAFAFA"/>
<path d="M31.4221 7.44018H39.687V10.6569C39.687 15.0197 36.1885 18.5459 31.8598 18.5459H31.4221V7.44018ZM19.6597 2.76807H31.4221V33.1341H30.0225C21.4959 33.1341 19.7904 27.1406 19.7904 21.8073L19.6597 2.76807ZM0.549805 9.64391C0.549805 15.0644 4.39748 17.048 8.6829 17.7092H0.549805V33.2223H8.37705C16.2486 33.2223 17.1662 29.6961 17.1662 26.3465C17.1662 22.2473 14.368 19.3835 10.0382 18.2811H17.1662V2.76807H9.33898C1.4685 2.76807 0.549805 6.29423 0.549805 9.64391Z" fill="#FAFAFA"/>
<path d="M158.853 56C156.44 56 154.579 55.349 153.269 54.0469C151.974 52.7295 151.326 50.693 151.326 47.9375C151.326 46.1055 151.639 44.5993 152.264 43.4179C152.889 42.2221 153.798 41.3364 154.989 40.7608C156.18 40.1703 157.609 39.8751 159.277 39.8751C160.274 39.8751 161.212 39.9886 162.091 40.216C162.969 40.4431 163.744 40.7913 164.413 41.2606C165.098 41.7299 165.627 42.3204 165.999 43.032C166.386 43.7284 166.58 44.5612 166.58 45.5303H163.208C163.208 45.061 163.103 44.6446 162.895 44.2812C162.701 43.9177 162.426 43.6149 162.069 43.3726C161.711 43.1303 161.302 42.9486 160.84 42.8274C160.379 42.7063 159.895 42.6461 159.389 42.6461C158.614 42.6461 157.937 42.752 157.356 42.9638C156.776 43.1608 156.292 43.4713 155.904 43.8949C155.532 44.3036 155.249 44.8187 155.056 45.4393C154.862 46.0602 154.765 46.7794 154.765 47.597V48.2781C154.765 49.4137 154.929 50.3448 155.257 51.0716C155.584 51.7985 156.076 52.3436 156.731 52.7067C157.386 53.0553 158.197 53.2294 159.165 53.2294C159.969 53.2294 160.676 53.1082 161.287 52.8659C161.912 52.6084 162.396 52.245 162.739 51.7756C163.096 51.3063 163.275 50.7311 163.275 50.0495V49.8907H158.696V47.3017H166.58V55.7273H164.391L164.101 54.0469C163.654 54.4857 163.17 54.8492 162.649 55.1368C162.143 55.4244 161.577 55.6366 160.952 55.773C160.326 55.9242 159.627 56 158.853 56Z" fill="#FAFAFA"/>
<path d="M169.79 55.7273V40.1478H182.029V42.9185H173.141V46.3932H181.002V49.1414H173.141V52.9341H182.164V55.7273H169.79Z" fill="#FAFAFA"/>
<path d="M185.036 55.7273V40.1478H193.433C194.565 40.1478 195.503 40.352 196.247 40.7608C197.007 41.1695 197.573 41.7452 197.945 42.4869C198.317 43.2137 198.503 44.0541 198.503 45.008C198.503 46.0221 198.28 46.9231 197.833 47.7105C197.387 48.4827 196.739 49.0732 195.89 49.4819L199.017 55.7273H195.332L192.63 50.0495H188.364V55.7273H185.036ZM188.364 47.3699H192.987C193.657 47.3699 194.178 47.1654 194.55 46.7566C194.922 46.3326 195.108 45.765 195.108 45.0534C195.108 44.5993 195.026 44.213 194.863 43.8949C194.699 43.5619 194.461 43.312 194.148 43.1455C193.835 42.9791 193.448 42.8956 192.987 42.8956H188.364V47.3699Z" fill="#FAFAFA"/>
<path d="M201.35 55.7273V40.1478H206.42L208.608 48.1193C208.698 48.4069 208.787 48.7474 208.876 49.1414C208.966 49.5349 209.055 49.9284 209.145 50.3223C209.249 50.7006 209.331 51.0415 209.39 51.344H209.569C209.599 51.0869 209.651 50.784 209.725 50.4358C209.8 50.0724 209.881 49.6865 209.971 49.2773C210.06 48.8686 210.157 48.4751 210.261 48.0964L212.45 40.1478H217.43V55.7273H214.147V48.3463C214.147 47.6652 214.147 46.9836 214.147 46.3025C214.162 45.6057 214.177 45.0004 214.192 44.4854C214.222 43.9707 214.236 43.6377 214.236 43.4861H214.058C214.028 43.653 213.954 43.9631 213.835 44.4175C213.73 44.8564 213.611 45.3257 213.477 45.8255C213.358 46.325 213.246 46.7566 213.142 47.12L210.752 55.7273H207.849L205.437 47.1429C205.348 46.8248 205.244 46.4537 205.124 46.0297C205.02 45.5909 204.916 45.144 204.812 44.6899C204.722 44.2206 204.633 43.8194 204.544 43.4861H204.365C204.38 43.8949 204.395 44.3871 204.41 44.9623C204.425 45.5227 204.44 46.1055 204.455 46.7113C204.469 47.3017 204.477 47.8469 204.477 48.3463V55.7273H201.35Z" fill="#FAFAFA"/>
<path d="M219.263 55.7273L225.159 40.1478H229.269L235.165 55.7273H231.569L230.475 52.6613H223.797L222.703 55.7273H219.263ZM224.757 49.936H229.514L228.152 46.0979C228.092 45.9314 228.018 45.7345 227.929 45.5074C227.854 45.2652 227.772 45.0004 227.683 44.7128C227.594 44.4248 227.504 44.1448 227.415 43.8724C227.34 43.5848 227.266 43.3273 227.192 43.1002H227.058C226.983 43.3878 226.886 43.7284 226.767 44.1223C226.648 44.5006 226.529 44.8716 226.41 45.2351C226.291 45.5833 226.194 45.8709 226.12 46.0979L224.757 49.936Z" fill="#FAFAFA"/>
<path d="M236.988 55.7273V40.1478H240.048L246.212 48.5509C246.301 48.6568 246.413 48.808 246.547 49.005C246.681 49.1867 246.808 49.3684 246.927 49.5501C247.046 49.7318 247.127 49.8754 247.172 49.9817H247.284C247.284 49.7242 247.284 49.4743 247.284 49.232C247.284 48.9749 247.284 48.7474 247.284 48.5509V40.1478H250.433V55.7273H247.373L241.075 47.12C240.926 46.9078 240.77 46.6732 240.606 46.416C240.442 46.1585 240.323 45.9615 240.249 45.8255H240.137C240.137 46.0526 240.137 46.2796 240.137 46.5067C240.137 46.7189 240.137 46.9231 240.137 47.12V55.7273H236.988Z" fill="#FAFAFA"/>
<path d="M258.27 55.7273V49.4591L252.329 40.1478H256.193L259.99 46.416H260.101L263.876 40.1478H267.516L261.62 49.4591V55.7273H258.27Z" fill="#FAFAFA"/>
</g>
<defs>
<clipPath id="clip0_1_44">
<rect width="267.858" height="56" fill="white" transform="translate(0.549805)"/>
</clipPath>
</defs>
</svg>
