<svg width="28" height="28" viewBox="0 0 28 28" fill="none" xmlns="http://www.w3.org/2000/svg">
<path fill-rule="evenodd" clip-rule="evenodd" d="M17.2835 20.1357L9.85487 18.1451L7.86444 10.7165L9.01549 11.025L8.66713 9.72468L6.86591 9.24207L0 16.108L2.51305 25.4869L11.8921 28.0001L18.758 21.1342L16.2449 11.7551L12.8568 10.8473L13.2052 12.1476L15.293 12.707L17.2835 20.1357ZM11.5436 26.6999L16.9818 21.2617L9.55318 19.2711L4.11506 24.7093L11.5436 26.6999ZM3.29073 23.8849L8.72884 18.4468L6.73835 11.0183L1.30024 16.4564L3.29073 23.8849ZM10.7166 7.8644L18.1452 9.85488L20.1356 17.2835L18.9845 16.975L19.3329 18.2754L21.1341 18.758L28 11.8921L25.487 2.51306L16.108 0L9.24206 6.86592L11.7552 16.2448L15.1432 17.1527L14.7948 15.8524L12.707 15.293L10.7166 7.8644ZM24.7093 4.11501L19.2712 9.55312L21.2616 16.9818L26.6998 11.5437L24.7093 4.11501ZM16.4564 1.30025L11.0183 6.73836L18.4469 8.72879L23.885 3.29067L16.4564 1.30025Z" fill="white"/>
</svg>
