<svg width="122" height="29" viewBox="0 0 122 29" fill="none" xmlns="http://www.w3.org/2000/svg">
<path d="M116.6 17.9H121.5V16.6H118V14.8H120.4V13.6H118V12.2H121.3V10.9H116.5V17.9H116.6ZM111.7 18C113.1 18 114.2 17.3 114.8 16.2L113.7 15.4C113.2 16.2 112.6 16.6 111.7 16.6C110.4 16.6 109.4 15.6 109.4 14.3C109.4 12.9 110.4 12 111.7 12C112.6 12 113.3 12.4 113.7 13.2L114.8 12.4C114.2 11.3 113 10.6 111.7 10.6C109.6 10.6 107.9 12.2 107.9 14.3C107.9 16.4 109.6 18 111.7 18ZM104.7 17.9H106.1V10.8H104.7V17.9ZM101.6 10.8L99.8 15.1L98 10.8H96.4L99.6 18H100.1L103.3 10.8H101.6ZM91.5 12.1H92.7C93.4 12.1 93.8 12.5 93.8 13.1C93.8 13.7 93.4 14.1 92.7 14.1H91.5V12.1ZM96 17.9L94 15.1C94.8 14.7 95.2 14 95.2 13.1C95.2 11.7 94.1 10.8 92.6 10.8H90V17.9H91.4V15.4H92.5L94.3 17.9H96ZM83.4 17.9H88.3V16.6H84.9V14.8H87.3V13.6H84.9V12.2H88.2V10.9H83.4V17.9ZM79.1 18C80.5 18 81.6 17.2 81.6 15.9C81.6 14.9 81 14.3 79.9 13.8L79 13.5C78.5 13.3 78.2 13.1 78.2 12.7C78.2 12.2 78.6 12 79.1 12C79.7 12 80.1 12.3 80.5 12.8L81.5 12C81.1 11.2 80.3 10.7 79.2 10.7C77.9 10.7 76.8 11.5 76.8 12.7C76.8 13.7 77.5 14.3 78.5 14.7L79.3 15C79.9 15.3 80.2 15.4 80.2 15.9C80.2 16.4 79.8 16.7 79.2 16.7C78.4 16.7 77.8 16.2 77.5 15.7L76.5 16.5C76.9 17.4 77.8 18 79.1 18ZM73.2 10.8V15L69.1 10.6H68.6V17.8H70V13.5L74.1 17.9H74.6V10.7H73.2V10.8ZM61.9 17.9H66.8V16.6H63.4V14.8H65.8V13.6H63.4V12.2H66.7V10.9H61.9V17.9ZM56.7 17.9H58.1V12.1H60.4V10.8H54.4V12.1H56.7V17.9ZM52 15.8H50.1L51 13.4L52 15.8ZM52.9 17.9H54.5L51.3 10.7H50.8L47.6 17.9H49.2L49.6 17H52.5L52.9 17.9ZM42 16.6V12.1H42.9C44.3 12.1 45.3 12.9 45.3 14.3C45.3 15.7 44.3 16.6 42.9 16.6H42ZM40.5 17.9H42.8C45.1 17.9 46.7 16.4 46.7 14.3C46.7 12.2 45.1 10.8 42.8 10.8H40.5V17.9Z" fill="#FAFAFA"/>
<path d="M13.8 7.69995H11.6L9.40001 16.2999L7.20001 7.69995H5.00001L8.30001 20.5H10.5L12.7 11.9L14.9 20.5H17.1L16 16.2999L13.8 7.69995ZM20.4 7.69995H18.2L16.7 13.4L17.3 15.6L17.8 17.6L19.3 11.9L20.4 7.69995ZM27.1 7.69995H24.9L22.7 16.2999L21.2 10.6L20.6 13L20.1 14.9L21.6 20.5999H23.8L26 12L28.2 20.5999H30.4L27.1 7.69995ZM0.200012 0.199951V28.5H5.40001V26.5H2.40001V2.29995H5.40001V0.199951H0.200012ZM30 0.199951V2.29995H33V26.5H30V28.5H35.2V0.199951H30Z" fill="#00A0DE"/>
</svg>
